<svg height="511pt" viewBox="-17 0 511 511.91836" width="511pt" xmlns="http://www.w3.org/2000/svg"><path d="m171.125 477.703125c14.140625 0 25.601562-11.464844 25.601562-25.601563 0-14.136718-11.460937-25.601562-25.601562-25.601562-4.710938 0-8.53125 3.820312-8.53125 8.535156 0 4.710938 3.820312 8.535156 8.53125 8.535156 4.714844 0 8.535156 3.820313 8.535156 8.53125 0 4.714844-3.820312 8.535157-8.535156 8.535157-4.710938 0-8.53125-3.820313-8.53125-8.535157 0-4.710937-3.820312-8.53125-8.535156-8.53125-4.710938 0-8.53125 3.820313-8.53125 8.53125 0 14.136719 11.460937 25.601563 25.597656 25.601563zm0 0"/><path d="m341.792969 477.703125c14.136719 0 25.597656-11.464844 25.597656-25.601563 0-14.136718-11.460937-25.601562-25.597656-25.601562-4.714844 0-8.535157 3.820312-8.535157 8.535156 0 4.710938 3.820313 8.535156 8.535157 8.535156 4.710937 0 8.53125 3.820313 8.53125 8.53125 0 4.714844-3.820313 8.535157-8.53125 8.535157-4.714844 0-8.535157-3.820313-8.535157-8.535157 0-4.710937-3.820312-8.53125-8.53125-8.53125-4.714843 0-8.535156 3.820313-8.535156 8.53125 0 14.136719 11.460938 25.601563 25.601563 25.601563zm0 0"/><path d="m136.992188 119.300781h-74.351563l-5.863281-94.394531c-.277344-4.503906-4.019532-8.011719-8.53125-8.003906h-39.253906c-4.710938 0-8.53125 3.820312-8.53125 8.53125 0 4.714844 3.820312 8.535156 8.53125 8.535156h31.214843l20.34375 325.214844c.050781 27.730468 22.519531 50.199218 50.253907 50.25h18.601562c-17.386719 16.96875-22.765625 42.773437-13.605469 65.273437 9.160157 22.5 31.03125 37.210938 55.324219 37.210938s46.167969-14.710938 55.324219-37.210938c9.160156-22.5 3.78125-48.304687-13.605469-65.273437h87.230469c-17.386719 16.96875-22.765625 42.773437-13.605469 65.273437s31.03125 37.210938 55.324219 37.210938 46.164062-14.710938 55.324219-37.210938c9.160156-22.5 3.78125-48.304687-13.605469-65.273437h60.679687c4.714844 0 8.535156-3.820313 8.535156-8.53125 0-4.714844-3.820312-8.535156-8.535156-8.535156h-333.386718c-8.882813-.042969-17.382813-3.625-23.613282-9.953126-6.230468-6.328124-9.683594-14.878906-9.589844-23.761718l-1.09375-17.484375h324.703126c11.355468.035156 21.382812-7.402344 24.644531-18.277344l51.359375-170.667969c2.316406-7.75.828125-16.140625-4.007813-22.625-4.835937-6.484375-12.453125-10.300781-20.539062-10.296875h-76.742188c-4.710937 0-8.535156 3.820313-8.535156 8.535157 0 4.710937 3.824219 8.53125 8.535156 8.53125h76.742188c2.730469-.015626 5.308593 1.277343 6.925781 3.484374 1.597656 2.136719 2.074219 4.910157 1.28125 7.457032l-51.351562 170.667968c-1.109376 3.660157-4.488282 6.164063-8.3125 6.160157h-325.769532l-11.734375-187.769531h73.285157c4.714843 0 8.535156-3.820313 8.535156-8.53125 0-4.714844-3.820313-8.535157-8.535156-8.535157zm247.46875 332.800781c0 23.5625-19.105469 42.667969-42.667969 42.667969-23.566407 0-42.667969-19.105469-42.667969-42.667969s19.101562-42.667968 42.667969-42.667968c23.550781.03125 42.636719 19.117187 42.667969 42.667968zm-170.667969 0c0 23.5625-19.101563 42.667969-42.667969 42.667969-23.5625 0-42.664062-19.105469-42.664062-42.667969s19.101562-42.667968 42.664062-42.667968c23.554688.03125 42.640625 19.117187 42.667969 42.667968zm0 0"/><path d="m362.65625 37.210938-31.367188-31.402344c-8.105468-7.746094-20.867187-7.746094-28.972656 0l-45.855468 45.882812-45.859376-45.882812c-8.105468-7.734375-20.859374-7.734375-28.960937 0l-31.378906 31.402344c-7.996094 7.996093-7.996094 20.964843 0 28.960937l45.859375 45.859375-45.859375 45.859375c-7.996094 7.996094-7.996094 20.964844 0 28.960937l31.378906 31.378907c8.101563 7.734375 20.855469 7.734375 28.960937 0l45.859376-45.859375 45.855468 45.867187c8 7.996094 20.964844 7.996094 28.964844 0l31.375-31.378906c7.996094-7.996094 7.996094-20.964844 0-28.960937l-45.859375-45.859376 45.859375-45.855468c3.84375-3.84375 6.003906-9.054688 6.003906-14.488282 0-5.433593-2.160156-10.644531-6.003906-14.484374zm-12.066406 16.894531-51.890625 51.894531c-3.332031 3.332031-3.332031 8.730469 0 12.0625l51.890625 51.894531c.640625.640625 1 1.507813 1 2.414063s-.359375 1.773437-1 2.414062l-31.375 31.378906c-.535156.808594-1.445313 1.296876-2.417969 1.296876s-1.878906-.488282-2.414063-1.296876l-51.890624-51.875c-3.332032-3.332031-8.734376-3.332031-12.066407 0l-51.890625 51.890626c-.535156.8125-1.441406 1.300781-2.414062 1.300781s-1.878906-.488281-2.417969-1.300781l-31.375-31.410157c-.640625-.640625-1-1.511719-1-2.417969 0-.902343.359375-1.773437 1-2.414062l51.890625-51.890625c3.332031-3.332031 3.332031-8.734375 0-12.066406l-51.890625-51.875c-.640625-.636719-1-1.507813-1-2.414063s.359375-1.773437 1-2.414062l31.386719-31.378906c.53125-.808594 1.4375-1.300782 2.410156-1.300782.96875 0 1.875.492188 2.410156 1.300782l51.890625 51.910156c3.332031 3.332031 8.734375 3.332031 12.066407 0l51.890624-51.890625c.535157-.8125 1.441407-1.300781 2.414063-1.300781s1.882813.488281 2.417969 1.300781l31.375 31.375c1.324218 1.332031 1.324218 3.484375 0 4.8125zm0 0"/><path d="m179.660156 281.433594c-4.714844 0-8.535156 3.820312-8.535156 8.535156 0 4.710938 3.820312 8.53125 8.535156 8.53125h162.132813c4.710937 0 8.53125-3.820312 8.53125-8.53125 0-4.714844-3.820313-8.535156-8.53125-8.535156zm0 0"/></svg>